<?xml version="1.0" encoding="UTF-8" standalone="no"?>
<!DOCTYPE svg PUBLIC "-//W3C//DTD SVG 1.1//EN" "http://www.w3.org/Graphics/SVG/1.1/DTD/svg11.dtd">
<svg width="100%" height="100%" viewBox="0 0 600 600" version="1.1" xmlns="http://www.w3.org/2000/svg" xmlns:xlink="http://www.w3.org/1999/xlink" xml:space="preserve" xmlns:serif="http://www.serif.com/" style="fill-rule:evenodd;clip-rule:evenodd;stroke-linecap:round;stroke-linejoin:round;stroke-miterlimit:1.5;">
    <g transform="matrix(1.00007,0,0,1.00007,0.000117399,-0.0220605)">
        <g transform="matrix(0.999926,0,0,0.999926,-0.000117391,0.0220588)">
            <path d="M274.658,312.396C274.658,312.396 426.7,177.798 548.798,299.978" style="fill:none;stroke:rgb(149,88,178);stroke-width:50px;"/>
        </g>
        <g>
            <g transform="matrix(0.999926,0,0,0.999926,-0.000117391,0.0220588)">
                <path d="M220.05,415.899C264.189,415.899 300.024,380.064 300.024,335.926L300.024,264.074C300.024,219.936 264.189,184.101 220.05,184.101L160.671,184.101C116.533,184.101 80.698,219.936 80.698,264.074L80.698,335.926C80.698,380.064 116.533,415.899 160.671,415.899L220.05,415.899ZM165.553,222.147L231.794,221.267L171.292,295.983L204.167,279.142L144.692,378.733L162.791,317.151L141.524,328.97L165.553,222.147Z" style="fill:rgb(225,180,0);"/>
            </g>
            <g transform="matrix(0.999926,0,0,0.999926,-0.000117391,0.0220588)">
                <path d="M202.349,221.659L165.553,222.147L141.524,328.97L162.791,317.151L144.692,378.733L202.349,282.186L202.349,415.899L80.698,415.899L80.698,184.101L202.349,184.101L202.349,221.659ZM202.349,257.629L202.349,280.073L171.292,295.983L202.349,257.629Z" style="fill:rgb(225,180,0);"/>
            </g>
            <g transform="matrix(0.305061,0,0,1.10358,64.0711,-19.0615)">
                <rect x="0" y="184.101" width="190.361" height="210.025" style="fill:rgb(225,180,0);"/>
            </g>
            <g transform="matrix(1.07909,0,0,0.999926,-0.000117391,-10.2561)">
                <rect x="0" y="245.942" width="107.63" height="20.558" style="fill:rgb(225,180,0);"/>
            </g>
            <g transform="matrix(1.07909,0,0,0.999926,-0.000117391,91.7553)">
                <rect x="0" y="245.942" width="107.63" height="20.558" style="fill:rgb(225,180,0);"/>
            </g>
        </g>
        <g transform="matrix(6.12323e-17,-1,1,6.12323e-17,-0.0302516,599.978)">
            <path d="M466.239,344.864L255.545,555.558L299.987,600L510.681,389.306L466.239,344.864ZM530.339,369.649L599.956,300.032L511.051,300.053L485.897,325.207L530.339,369.649Z" style="fill:rgb(64,99,216);"/>
            <g transform="matrix(6.88453,-6.88453,12.9699,12.9699,-1544.81,-512.696)">
                <path d="M59.625,94.31L53.17,90.885L53.17,114.013L59.625,110.588L59.625,94.31Z" style="fill:rgb(203,60,51);"/>
            </g>
        </g>
    </g>
</svg>
