<?xml version="1.0" standalone="no"?>
<!DOCTYPE svg PUBLIC "-//W3C//DTD SVG 20010904//EN"
 "http://www.w3.org/TR/2001/REC-SVG-20010904/DTD/svg10.dtd">
<svg version="1.0" xmlns="http://www.w3.org/2000/svg"
 width="700.000000pt" height="700.000000pt" viewBox="0 0 700.000000 700.000000"
 preserveAspectRatio="xMidYMid meet">
<metadata>
Created by potrace 1.14, written by Peter Selinger 2001-2017
</metadata>
<g transform="translate(0.000000,700.000000) scale(0.100000,-0.100000)"
fill="#000000" stroke="none">
<path d="M3500 6477 l0 -512 147 -148 148 -147 259 259 259 259 -402 401
c-220 220 -403 401 -406 401 -3 0 -5 -231 -5 -513z"/>
<path d="M4284 5699 c-142 -142 -256 -260 -254 -263 3 -3 239 -239 525 -526
l520 -520 -75 -1 c-247 -3 -525 -51 -775 -135 -209 -69 -529 -214 -670 -302
l-50 -31 -11 92 c-14 120 -36 201 -78 292 -128 277 -372 468 -676 530 -77 16
-173 18 -1033 18 -521 0 -950 -3 -954 -6 -3 -4 -6 -139 -5 -302 l0 -295 -374
0 -374 0 0 -120 0 -120 374 0 374 0 0 -475 1 -475 -375 0 -374 0 0 -120 0
-120 374 0 375 0 -2 -335 -2 -335 45 -1 c122 -2 1587 -1 1736 1 141 2 187 7
265 26 335 85 589 338 681 679 12 46 21 120 24 215 6 142 6 146 32 168 26 22
179 127 214 147 9 6 50 30 90 53 59 35 289 151 383 193 97 43 353 120 480 144
144 28 393 38 525 21 236 -31 465 -115 658 -244 l84 -55 -1231 -1231 -1231
-1231 0 -517 0 -517 1751 1749 1750 1749 -1229 1229 -1229 1230 -259 -259z
m-1584 -1284 c0 -2 -15 -21 -32 -42 -36 -43 -54 -66 -203 -249 -397 -490 -465
-574 -460 -574 4 0 89 43 190 95 l184 95 -193 -322 c-410 -686 -487 -812 -482
-793 8 29 132 455 162 555 14 47 28 93 31 103 5 19 -32 1 -187 -87 -25 -14
-48 -26 -52 -26 -3 0 0 24 8 53 7 28 54 234 104 457 50 223 107 478 127 567
l36 162 216 1 c118 0 216 2 217 3 3 3 334 5 334 2z"/>
</g>
</svg>
